# xmcd
#
# Track frame offsets:
#	150
#	11761
#	24293
#	35831
#	49135
#	61450
#	76173
#	87518
#	100121
#	114640
#	128215
#	140299
#	150741
#	162401
#	172600
#
# Disc length: 2448 seconds
#
# Revision: 1
# Processed by: cddbd v1.4PL0 Copyright (c) Steve Scherf et al.
# Submitted via: audiograbber 1.82.02
#
DISCID=ba098e0f
DTITLE=Various Artist - Triple Value Country Disc Two
DYEAR=1900
DGENRE=
TTITLE0=Sammi Smith - Help Me Make It Through The Night
TTITLE1=Wanda Jackson - Crazy
TTITLE2=Patsy Cline - Walkin' After Midnight
TTITLE3=Lynn Anderson - Rose Garden
TTITLE4=Freddy Fender - Wasted Days and Wasted Nights
TTITLE5=Johnny Paycheck - A Good Year For The Roses
TTITLE6=Hank Locklin - Send Me The Pillow You Dream On
TTITLE7=Johnny Cash - Folson Prison Blues
TTITLE8=Jeannie C. Riley - Harper Valley PTA
TTITLE9=Jimmy Dean - Big Bad John
TTITLE10=Jody Miller - Queen Of The House
TTITLE11=George Hamilton IV - Abilene
TTITLE12=Louis Armstrong - The Happiest Girl in The Whole USA
TTITLE13=Faron Young - Hello Walls
TTITLE14=Guy Mitchell - Singing The Blues
EXTD=
EXTT0=
EXTT1=
EXTT2=
EXTT3=
EXTT4=
EXTT5=
EXTT6=
EXTT7=
EXTT8=
EXTT9=
EXTT10=
EXTT11=
EXTT12=
EXTT13=
EXTT14=
PLAYORDER=
